<svg id="Layer_1" data-name="Layer 1" xmlns="http://www.w3.org/2000/svg" viewBox="0 0 75.77 55.92"><title>noun_wifi_2475153</title><path fill="#fff" d="M46.15,71.9l3.85,6,3.85-6s-1.67-2.18-4-2.19C47.81,69.72,46.15,71.9,46.15,71.9Z" transform="translate(-12.09 -22)"/><path fill="#fff" d="M64.56,59.07A23.28,23.28,0,0,0,35,60.16l6.64,7.48A13.27,13.27,0,0,1,58.48,67Z" transform="translate(-12.09 -22)"/><path fill="#fff" d="M76.16,48.52A38.9,38.9,0,0,0,23.77,49l6.8,7.33A28.9,28.9,0,0,1,69.49,56Z" transform="translate(-12.09 -22)"/><path fill="#fff" d="M12.09,37.19,19,44.45A45.51,45.51,0,0,1,81.08,44l6.78-7.35a55.51,55.51,0,0,0-75.77.5Z" transform="translate(-12.09 -22)"/></svg>